<svg width="20" height="20" viewBox="0 0 20 20" fill="none" xmlns="http://www.w3.org/2000/svg">
<mask id="path-1-outside-1_1770_4699" maskUnits="userSpaceOnUse" x="0" y="0" width="20" height="20" fill="black">
<rect fill="white" width="20" height="20"/>
<path d="M2 10C2 5.58125 5.58125 2 10 2C14.4187 2 18 5.58125 18 10C18 14.4187 14.4187 18 10 18C5.58125 18 2 14.4187 2 10ZM7.46875 8.50313L8.94063 9.97188L7.46875 11.4688C7.17812 11.7625 7.17812 12.2375 7.46875 12.5031C7.7625 12.8219 8.2375 12.8219 8.50313 12.5031L9.97188 11.0594L11.4688 12.5031C11.7625 12.8219 12.2375 12.8219 12.5031 12.5031C12.8219 12.2375 12.8219 11.7625 12.5031 11.4688L11.0594 9.97188L12.5031 8.50313C12.8219 8.2375 12.8219 7.7625 12.5031 7.46875C12.2375 7.17812 11.7625 7.17812 11.4688 7.46875L9.97188 8.94063L8.50313 7.46875C8.2375 7.17812 7.7625 7.17812 7.46875 7.46875C7.17812 7.7625 7.17812 8.2375 7.46875 8.50313Z"/>
</mask>
<path d="M2 10C2 5.58125 5.58125 2 10 2C14.4187 2 18 5.58125 18 10C18 14.4187 14.4187 18 10 18C5.58125 18 2 14.4187 2 10ZM7.46875 8.50313L8.94063 9.97188L7.46875 11.4688C7.17812 11.7625 7.17812 12.2375 7.46875 12.5031C7.7625 12.8219 8.2375 12.8219 8.50313 12.5031L9.97188 11.0594L11.4688 12.5031C11.7625 12.8219 12.2375 12.8219 12.5031 12.5031C12.8219 12.2375 12.8219 11.7625 12.5031 11.4688L11.0594 9.97188L12.5031 8.50313C12.8219 8.2375 12.8219 7.7625 12.5031 7.46875C12.2375 7.17812 11.7625 7.17812 11.4688 7.46875L9.97188 8.94063L8.50313 7.46875C8.2375 7.17812 7.7625 7.17812 7.46875 7.46875C7.17812 7.7625 7.17812 8.2375 7.46875 8.50313Z" fill="#CC3C3C"/>
<path d="M2 10C2 5.58125 5.58125 2 10 2C14.4187 2 18 5.58125 18 10C18 14.4187 14.4187 18 10 18C5.58125 18 2 14.4187 2 10ZM7.46875 8.50313L8.94063 9.97188L7.46875 11.4688C7.17812 11.7625 7.17812 12.2375 7.46875 12.5031C7.7625 12.8219 8.2375 12.8219 8.50313 12.5031L9.97188 11.0594L11.4688 12.5031C11.7625 12.8219 12.2375 12.8219 12.5031 12.5031C12.8219 12.2375 12.8219 11.7625 12.5031 11.4688L11.0594 9.97188L12.5031 8.50313C12.8219 8.2375 12.8219 7.7625 12.5031 7.46875C12.2375 7.17812 11.7625 7.17812 11.4688 7.46875L9.97188 8.94063L8.50313 7.46875C8.2375 7.17812 7.7625 7.17812 7.46875 7.46875C7.17812 7.7625 7.17812 8.2375 7.46875 8.50313Z" stroke="white" stroke-width="4" mask="url(#path-1-outside-1_1770_4699)"/>
</svg>
