<svg width="14" height="15" viewBox="0 0 14 15" fill="none" xmlns="http://www.w3.org/2000/svg">
<g clip-path="url(#clip0_932_5209)">
<path d="M0 7.5C0 3.63359 3.13359 0.5 7 0.5C10.8664 0.5 14 3.63359 14 7.5C14 11.3664 10.8664 14.5 7 14.5C3.13359 14.5 0 11.3664 0 7.5ZM10.1664 6.29141C10.4645 5.99336 10.4645 5.50664 10.1664 5.20859C9.86836 4.91055 9.38164 4.91055 9.08359 5.20859L6.125 8.16719L4.91641 6.95859C4.61836 6.66055 4.13164 6.66055 3.83359 6.95859C3.53555 7.25664 3.53555 7.74336 3.83359 8.04141L5.58359 9.79141C5.88164 10.0895 6.36836 10.0895 6.66641 9.79141L10.1664 6.29141Z" fill="#1E7D0F"/>
</g>
<defs>
<clipPath id="clip0_932_5209">
<rect width="14" height="14" fill="white" transform="translate(0 0.5)"/>
</clipPath>
</defs>
</svg>
