<svg width="24" height="24" viewBox="0 0 24 24" xmlns="http://www.w3.org/2000/svg">
    <g clip-path="url(#clip0_228_2049)">
        <path d="M23.6297 22.0781L17.3484 15.7969C18.7078 14.1328 19.4578 12.0375 19.4578 9.75C19.4578 4.36406 15.0923 0 9.70781 0C4.32328 0 0 4.36547 0 9.75C0 15.1345 4.365 19.5 9.70781 19.5C11.9948 19.5 14.093 18.7073 15.7547 17.3888L22.0359 23.67C22.2984 23.8922 22.5891 24 22.875 24C23.1609 24 23.4506 23.8901 23.6705 23.6704C24.1078 23.2312 24.1078 22.5187 23.6297 22.0781ZM2.25 9.75C2.25 5.61469 5.61469 2.25 9.75 2.25C13.8853 2.25 17.25 5.61469 17.25 9.75C17.25 13.8853 13.8853 17.25 9.75 17.25C5.61469 17.25 2.25 13.8844 2.25 9.75Z"/>
    </g>
    <defs>
        <clipPath id="clip0_228_2049">
            <rect width="24" height="24"/>
        </clipPath>
    </defs>
</svg>
