<svg width="20" height="32" viewBox="0 0 20 32" xmlns="http://www.w3.org/2000/svg">
    <g clip-path="url(#clip0_932_5573)">
        <path d="M19.2649 23.5428L19.2653 23.5432C19.7887 24.0703 19.7887 24.9259 19.2653 25.4531C18.7425 25.9795 17.8947 25.9796 17.3718 25.4533C17.3717 25.4532 17.3716 25.4531 17.3715 25.453L10.0378 18.0134L9.93141 17.9055L9.82459 18.013L2.43838 25.4505C1.91552 25.977 1.06755 25.977 0.544618 25.4505C0.0211537 24.9235 0.021178 24.0679 0.544588 23.5407C0.544602 23.5407 0.544616 23.5407 0.544629 23.5407L7.93328 16.1057L8.03795 16.0004L7.93368 15.8947L0.542941 8.40092L0.542575 8.40055C0.0191446 7.87348 0.0191365 7.01782 0.542581 6.49069C1.06537 5.96422 1.91319 5.96419 2.43614 6.4905C2.4362 6.49057 2.43627 6.49063 2.43634 6.4907L9.82419 13.9865L9.93061 14.0945L10.0375 13.9869L17.4237 6.54944C17.9465 6.02295 18.7945 6.02295 19.3174 6.54945C19.8409 7.07649 19.8409 7.93211 19.3174 8.45926C19.3174 8.45928 19.3174 8.45929 19.3174 8.4593L11.9288 15.8943L11.8241 15.9996L11.9284 16.1053L19.2649 23.5428Z"
              stroke="white" stroke-width="0.3"/>
    </g>
    <defs>
        <clipPath id="clip0_932_5573">
            <rect width="19.8621" height="32"/>
        </clipPath>
    </defs>
</svg>
